P1
#sep
5 1
0
1
0
1
0