P1
#sep
5 3
0 0 0
0 1 0
0 0 0
0 1 0
0 0 0